<svg width="1024" height="500" viewBox="0 0 1024 500" fill="none" xmlns="http://www.w3.org/2000/svg">
<rect width="1024" height="500" fill="#1D2027"/>
<path d="M396.725 276.662C407.193 268.594 435.074 246.314 461.042 219.532C478.305 201.723 485.646 183.886 498.731 170.394C510.579 158.171 521.355 151.044 521.355 151.044L524.391 154.175L544.9 133.033L536.978 124.862C536.338 124.189 535.982 123.296 535.982 122.368C535.982 121.439 536.338 120.546 536.978 119.873L538.614 118.181C538.614 118.181 515.307 86.8093 485.836 95.4864C482.409 96.4945 479.365 98.2299 478.495 97.3444C477.321 96.1348 481.812 91.4938 484.441 88.7978C521.711 50.6501 562.839 93.162 562.859 93.1857L564.306 91.6914C564.617 91.3638 564.992 91.103 565.408 90.9248C565.823 90.7465 566.271 90.6546 566.723 90.6546C567.175 90.6546 567.623 90.7465 568.038 90.9248C568.454 91.103 568.829 91.3638 569.14 91.6914L605.655 129.353C606.301 130.024 606.661 130.918 606.661 131.849C606.661 132.78 606.301 133.675 605.655 134.346C605.655 134.346 601.192 142.169 612.917 143.576C617.637 144.145 620.59 145.209 622.27 146.612C622.464 146.782 630.09 154.554 630.09 154.554C630.733 155.225 631.092 156.119 631.092 157.048C631.092 157.978 630.733 158.872 630.09 159.543L602.758 187.737C602.445 188.063 602.07 188.322 601.655 188.499C601.239 188.677 600.792 188.768 600.34 188.768C599.889 188.768 599.442 188.677 599.026 188.499C598.611 188.322 598.236 188.063 597.923 187.737C597.923 187.737 590.388 179.87 590.226 179.664C588.866 177.933 587.831 174.889 587.289 170.019C585.913 157.922 578.335 162.539 578.335 162.539C578.023 162.865 577.648 163.125 577.232 163.302C576.817 163.479 576.37 163.571 575.918 163.571C575.466 163.571 575.019 163.479 574.604 163.302C574.188 163.125 573.813 162.865 573.501 162.539L565.579 154.368L545.074 175.514L548.11 178.648C548.11 178.648 541.208 189.768 529.348 201.992C516.267 215.484 498.984 223.054 481.721 240.863C455.761 267.641 434.153 296.396 426.322 307.192C424.879 309.169 424.029 310.094 423.124 310.094C422.163 310.094 421.135 309.066 419.281 307.153L408.019 295.538L396.76 283.928C393.151 280.196 392.78 279.718 396.725 276.662" fill="white"/>
<path d="M432.807 381L424.852 351.909H428.432L434.511 375.602H434.795L440.989 351.909H444.966L451.159 375.602H451.443L457.523 351.909H461.102L453.148 381H449.511L443.091 357.818H442.864L436.443 381H432.807ZM471.869 381.455C469.9 381.455 468.171 380.986 466.685 380.048C465.207 379.111 464.052 377.799 463.219 376.114C462.395 374.428 461.983 372.458 461.983 370.205C461.983 367.932 462.395 365.948 463.219 364.253C464.052 362.558 465.207 361.241 466.685 360.304C468.171 359.366 469.9 358.898 471.869 358.898C473.839 358.898 475.563 359.366 477.04 360.304C478.527 361.241 479.682 362.558 480.506 364.253C481.339 365.948 481.756 367.932 481.756 370.205C481.756 372.458 481.339 374.428 480.506 376.114C479.682 377.799 478.527 379.111 477.04 380.048C475.563 380.986 473.839 381.455 471.869 381.455ZM471.869 378.443C473.366 378.443 474.597 378.06 475.562 377.293C476.528 376.526 477.243 375.517 477.707 374.267C478.171 373.017 478.403 371.663 478.403 370.205C478.403 368.746 478.171 367.387 477.707 366.128C477.243 364.868 476.528 363.85 475.562 363.074C474.597 362.297 473.366 361.909 471.869 361.909C470.373 361.909 469.142 362.297 468.176 363.074C467.21 363.85 466.495 364.868 466.031 366.128C465.567 367.387 465.335 368.746 465.335 370.205C465.335 371.663 465.567 373.017 466.031 374.267C466.495 375.517 467.21 376.526 468.176 377.293C469.142 378.06 470.373 378.443 471.869 378.443ZM486.873 381V359.182H490.112V362.477H490.339C490.737 361.398 491.456 360.522 492.498 359.849C493.54 359.177 494.714 358.841 496.021 358.841C496.267 358.841 496.575 358.846 496.944 358.855C497.313 358.865 497.593 358.879 497.782 358.898V362.307C497.668 362.278 497.408 362.236 497.001 362.179C496.603 362.113 496.182 362.08 495.737 362.08C494.676 362.08 493.729 362.302 492.896 362.747C492.072 363.183 491.418 363.789 490.935 364.565C490.462 365.332 490.225 366.208 490.225 367.193V381H486.873ZM504.881 373.045L504.824 368.898H505.506L515.051 359.182H519.199L509.028 369.466H508.744L504.881 373.045ZM501.756 381V351.909H505.108V381H501.756ZM515.619 381L507.097 370.205L509.483 367.875L519.881 381H515.619ZM533.229 359.182V362.023H521.468V359.182H533.229ZM524.991 381V356.17C524.991 354.92 525.284 353.879 525.871 353.045C526.459 352.212 527.221 351.587 528.158 351.17C529.096 350.754 530.085 350.545 531.127 350.545C531.951 350.545 532.623 350.612 533.144 350.744C533.665 350.877 534.053 351 534.309 351.114L533.343 354.011C533.173 353.955 532.936 353.884 532.633 353.798C532.339 353.713 531.951 353.67 531.468 353.67C530.36 353.67 529.56 353.95 529.067 354.509C528.585 355.067 528.343 355.886 528.343 356.966V381H524.991ZM541.28 351.909V381H537.928V351.909H541.28ZM556.283 381.455C554.314 381.455 552.585 380.986 551.099 380.048C549.621 379.111 548.466 377.799 547.633 376.114C546.809 374.428 546.397 372.458 546.397 370.205C546.397 367.932 546.809 365.948 547.633 364.253C548.466 362.558 549.621 361.241 551.099 360.304C552.585 359.366 554.314 358.898 556.283 358.898C558.253 358.898 559.977 359.366 561.454 360.304C562.941 361.241 564.096 362.558 564.92 364.253C565.753 365.948 566.17 367.932 566.17 370.205C566.17 372.458 565.753 374.428 564.92 376.114C564.096 377.799 562.941 379.111 561.454 380.048C559.977 380.986 558.253 381.455 556.283 381.455ZM556.283 378.443C557.78 378.443 559.011 378.06 559.977 377.293C560.942 376.526 561.657 375.517 562.121 374.267C562.585 373.017 562.817 371.663 562.817 370.205C562.817 368.746 562.585 367.387 562.121 366.128C561.657 364.868 560.942 363.85 559.977 363.074C559.011 362.297 557.78 361.909 556.283 361.909C554.787 361.909 553.556 362.297 552.59 363.074C551.624 363.85 550.909 364.868 550.445 366.128C549.981 367.387 549.749 368.746 549.749 370.205C549.749 371.663 549.981 373.017 550.445 374.267C550.909 375.517 551.624 376.526 552.59 377.293C553.556 378.06 554.787 378.443 556.283 378.443ZM575.488 381L568.84 359.182H572.363L577.079 375.886H577.306L581.965 359.182H585.545L590.147 375.83H590.374L595.09 359.182H598.613L591.965 381H588.67L583.897 364.239H583.556L578.783 381H575.488Z" fill="white"/>
<path d="M426.276 425V398.818H436.605C438.591 398.818 440.283 399.197 441.68 399.956C443.078 400.706 444.143 401.75 444.876 403.088C445.618 404.418 445.989 405.952 445.989 407.69C445.989 409.429 445.614 410.963 444.864 412.293C444.114 413.622 443.027 414.658 441.604 415.399C440.189 416.141 438.476 416.511 436.464 416.511H429.881V412.075H435.57C436.635 412.075 437.513 411.892 438.203 411.526C438.902 411.151 439.422 410.635 439.763 409.979C440.112 409.314 440.287 408.551 440.287 407.69C440.287 406.821 440.112 406.062 439.763 405.415C439.422 404.759 438.902 404.251 438.203 403.893C437.504 403.527 436.618 403.344 435.544 403.344H431.811V425H426.276ZM449.584 425V398.818H459.914C461.891 398.818 463.578 399.172 464.976 399.879C466.382 400.578 467.452 401.571 468.185 402.858C468.926 404.136 469.297 405.641 469.297 407.371C469.297 409.109 468.922 410.605 468.172 411.858C467.422 413.102 466.336 414.057 464.912 414.722C463.498 415.386 461.784 415.719 459.773 415.719H452.857V411.27H458.878C459.935 411.27 460.813 411.125 461.512 410.835C462.211 410.545 462.73 410.111 463.071 409.531C463.421 408.952 463.596 408.232 463.596 407.371C463.596 406.501 463.421 405.768 463.071 405.172C462.73 404.575 462.206 404.124 461.499 403.817C460.8 403.501 459.918 403.344 458.853 403.344H455.12V425H449.584ZM463.723 413.085L470.23 425H464.12L457.753 413.085H463.723ZM473.209 425V398.818H490.851V403.382H478.745V409.621H489.944V414.185H478.745V420.436H490.902V425H473.209ZM495.252 398.818H502.079L509.289 416.409H509.596L516.806 398.818H523.633V425H518.263V407.959H518.046L511.271 424.872H507.614L500.839 407.895H500.621V425H495.252V398.818ZM533.729 398.818V425H528.194V398.818H533.729ZM554.455 398.818H559.991V415.821C559.991 417.73 559.535 419.401 558.623 420.832C557.719 422.264 556.454 423.381 554.826 424.182C553.198 424.974 551.302 425.371 549.137 425.371C546.964 425.371 545.063 424.974 543.435 424.182C541.808 423.381 540.542 422.264 539.638 420.832C538.735 419.401 538.283 417.73 538.283 415.821V398.818H543.819V415.348C543.819 416.345 544.036 417.232 544.471 418.007C544.914 418.783 545.536 419.392 546.337 419.835C547.138 420.278 548.072 420.5 549.137 420.5C550.211 420.5 551.144 420.278 551.937 419.835C552.738 419.392 553.356 418.783 553.79 418.007C554.234 417.232 554.455 416.345 554.455 415.348V398.818ZM564.545 398.818H571.372L578.582 416.409H578.889L586.099 398.818H592.926V425H587.556V407.959H587.339L580.564 424.872H576.907L570.132 407.895H569.914V425H564.545V398.818Z" fill="white"/>
</svg>
